<svg width="172" height="64" viewBox="0 0 172 64" fill="none" xmlns="http://www.w3.org/2000/svg">
<path d="M28.6015 11.1882C28.7772 10.4944 29.6637 9.74083 30.5085 9.56766C31.6138 9.34102 31.5662 9.33926 32.3882 9.63877C34.0511 10.2444 33.7692 9.09656 38.4785 34.4404C39.0492 37.511 39.5877 40.2253 39.6753 40.4724C39.8031 40.8324 40.2111 40.1519 41.7307 37.0444C43.9115 32.585 44.0476 35.6516 45.6088 35.6516H172L168.269 41.6071L45.6088 41.9999C45.4841 42.2055 44.506 44.2249 43.4352 46.4874C41.2464 51.1121 41.0992 51.3501 40.097 51.8829C38.9721 52.4809 37.8396 52.3875 36.8756 51.6175L36.0639 50.9687L35.2095 46.4755C34.7397 44.004 33.778 38.8726 33.0723 35.072C32.3666 31.2716 31.7526 28.194 31.7077 28.2332C31.6297 28.3014 31.1514 31.4869 28.0268 52.7501C27.2268 58.1931 26.5108 62.3743 26.3251 62.6879C25.4039 64.2407 22.4011 64.1297 21.4387 62.5071C21.2594 62.2047 19.886 56.317 18.3871 49.4232C17.1537 43.7515 17.1226 43.4441 16.7144 41.7094L0 41.9999L7.61605 35.072C7.76635 35.2892 16.97 35.072 21.1103 35.072C22.1691 39.9542 23.1883 44.7489 23.2881 45.0183C23.5305 45.6741 23.2456 47.4602 27.1302 20.9243C27.8795 15.8068 28.5416 11.4256 28.6015 11.1882Z" fill="#CC0000"/>
<path fill-rule="evenodd" clip-rule="evenodd" d="M10.7564 9.47083C6.3856 10.0501 3.4311 12.9594 2.56932 17.5326C2.26574 19.1438 2.28128 21.6819 2.60254 22.9629C3.48733 26.4911 6.15319 29.0613 9.61036 29.7192C10.8023 29.946 13.124 29.8703 14.3624 29.5643C15.8295 29.2018 17.2449 28.5007 18.0416 27.7418C18.5919 27.2178 19.4072 26.0616 19.795 25.2553L20.1905 24.433L19.511 24.1617C19.1373 24.0125 18.7713 23.887 18.6976 23.8827C18.6241 23.8783 18.4942 24.0232 18.4092 24.2047C17.7386 25.6357 16.0525 27.0215 14.469 27.443C13.6307 27.6661 12.2118 27.6865 11.3397 27.4879C8.72 26.8913 7.01223 24.6758 6.5581 21.2848C6.49095 20.7838 6.43566 20.3169 6.43507 20.2471C6.43436 20.1469 7.99561 20.1203 13.8489 20.1203H21.2636V19.468C21.2636 17.373 20.3849 14.9183 18.9796 13.0877C17.6601 11.3688 15.9208 10.0997 14.2885 9.66445C13.3673 9.41887 11.7978 9.33282 10.7564 9.47083ZM13.9675 11.5554C14.3949 11.6824 14.7767 11.9183 15.3339 12.3996C16.5879 13.4828 17.1064 14.6745 17.1096 16.4812C17.1111 17.2944 17.0731 17.4998 16.8846 17.6989L16.6579 17.9385L11.5932 17.967L6.52856 17.9956L6.61326 17.3582C7.01556 14.3299 8.77611 11.9765 11.0525 11.424C11.7413 11.2569 13.1818 11.3218 13.9675 11.5554Z" fill="white"/>
<path fill-rule="evenodd" clip-rule="evenodd" d="M76.9005 9.99332C75.1673 10.256 72.6568 11.3671 71.7176 12.2871C70.9033 13.085 70.5891 13.7933 70.5387 14.9455C70.4916 16.0211 70.6204 16.6035 71.0068 17.0606C71.4918 17.6343 72.3761 17.8203 73.3453 17.5524C74.5671 17.2147 74.9429 15.6945 74.1766 14.1892C73.7403 13.332 73.8446 12.7906 74.5113 12.4535C75.1383 12.1366 76.0492 11.9927 77.4666 11.9869C79.0883 11.9803 79.987 12.2091 80.689 12.8073C81.4464 13.4526 81.649 14.0007 81.7457 15.6667C81.878 17.9459 81.8771 17.9619 81.6087 18.0165C81.4813 18.0425 80.5436 18.2064 79.5248 18.3807C74.9553 19.1631 72.9702 19.9239 71.3863 21.4996C70.1755 22.7042 69.6121 24.2128 69.7371 25.916C69.9136 28.3226 71.0007 29.6379 73.2971 30.2232C73.8524 30.3647 74.3276 30.3846 76.1272 30.3422C79.1372 30.2711 80.213 29.9645 81.4755 28.818L81.999 28.3425L82.3156 28.8189C82.9348 29.7503 83.9337 30.1642 85.5629 30.1642C86.7467 30.1642 87.4725 29.9048 88.1436 29.2421C88.5179 28.8724 88.6324 28.6846 88.6324 28.4409C88.6324 28.008 88.4702 27.9469 87.1529 27.883C85.8812 27.8213 85.6323 27.7079 85.2878 27.033C85.0916 26.6488 85.0844 26.4826 85.1334 23.5053C85.1617 21.7868 85.1778 19.1361 85.1691 17.6148C85.1479 13.8753 84.9864 13.1242 83.99 12.1325C82.4283 10.5778 79.291 9.63118 76.9005 9.99332ZM81.8085 21.943C81.7325 24.3368 81.5426 25.5688 81.1142 26.4448C80.4763 27.7495 79.1509 28.3377 76.7976 28.3609C75.8108 28.3705 75.6661 28.3465 75.1302 28.0846C74.391 27.7231 73.6795 26.9501 73.4482 26.257C73.2034 25.523 73.2799 24.1474 73.603 23.4766C74.1217 22.3994 75.1035 21.6457 76.8316 20.9983C77.9981 20.5612 80.6674 19.9529 81.5221 19.9294L81.8728 19.9198L81.8085 21.943Z" fill="white"/>
<path fill-rule="evenodd" clip-rule="evenodd" d="M158.888 9.99332C157.155 10.256 154.644 11.3671 153.705 12.2871C152.891 13.085 152.577 13.7933 152.526 14.9455C152.479 16.0211 152.608 16.6035 152.994 17.0606C153.479 17.6343 154.364 17.8203 155.333 17.5524C156.555 17.2147 156.93 15.6945 156.164 14.1892C155.728 13.332 155.832 12.7906 156.499 12.4535C157.126 12.1366 158.037 11.9927 159.454 11.9869C161.076 11.9803 161.974 12.2091 162.677 12.8073C163.434 13.4526 163.636 14.0007 163.733 15.6667C163.866 17.9459 163.865 17.9619 163.596 18.0165C163.469 18.0425 162.531 18.2064 161.512 18.3807C156.943 19.1631 154.958 19.9239 153.374 21.4996C152.163 22.7042 151.6 24.2128 151.725 25.916C151.901 28.3226 152.988 29.6379 155.285 30.2232C155.84 30.3647 156.315 30.3846 158.115 30.3422C161.125 30.2711 162.201 29.9645 163.463 28.818L163.986 28.3425L164.303 28.8189C164.922 29.7503 165.921 30.1642 167.55 30.1642C168.734 30.1642 169.46 29.9048 170.131 29.2421C170.505 28.8724 170.62 28.6846 170.62 28.4409C170.62 28.008 170.458 27.9469 169.14 27.883C167.869 27.8213 167.62 27.7079 167.275 27.033C167.079 26.6488 167.072 26.4826 167.121 23.5053C167.149 21.7868 167.165 19.1361 167.157 17.6148C167.135 13.8753 166.974 13.1242 165.977 12.1325C164.416 10.5778 161.278 9.63118 158.888 9.99332ZM163.796 21.943C163.72 24.3368 163.53 25.5688 163.102 26.4448C162.464 27.7495 161.138 28.3377 158.785 28.3609C157.798 28.3705 157.654 28.3465 157.118 28.0846C156.378 27.7231 155.667 26.9501 155.436 26.257C155.191 25.523 155.267 24.1474 155.59 23.4766C156.109 22.3994 157.091 21.6457 158.819 20.9983C159.986 20.5612 162.655 19.9529 163.51 19.9294L163.86 19.9198L163.796 21.943Z" fill="white"/>
<path fill-rule="evenodd" clip-rule="evenodd" d="M129.179 0.308352C127.813 0.471611 126.642 0.625875 126.576 0.65133C126.496 0.682407 126.457 0.934299 126.457 1.41651C126.457 1.81183 126.468 2.13774 126.481 2.1408C126.494 2.14387 126.842 2.18415 127.254 2.23046C128.194 2.33596 128.466 2.53111 128.63 3.2186C128.723 3.6085 128.744 6.37584 128.726 15.6806C128.702 27.4592 128.699 27.6467 128.509 27.9916C128.252 28.4606 127.607 28.817 127.015 28.817H126.553V29.5837V30.3504H130.469H134.385V29.5837V28.817H133.76C132.896 28.817 132.431 28.555 132.16 27.9161C131.977 27.4835 131.954 27.2181 131.924 25.1879L131.891 22.9389L133.067 21.6347L134.242 20.3305L136.672 24.1318C138.009 26.2224 139.12 28.0554 139.141 28.2052C139.205 28.6739 138.962 28.817 138.103 28.817H137.346V29.5837V30.3504H141.358H145.369V29.5837V28.817H144.719C144.164 28.817 144.005 28.7732 143.626 28.5159C143.382 28.3503 142.94 27.8788 142.643 27.4681C141.95 26.509 136.677 18.2381 136.677 18.1103C136.677 18.0572 137.75 16.9137 139.06 15.5693C141.73 12.831 142.033 12.6037 143.149 12.4972L143.841 12.4311V11.679V10.927H139.829H135.818V11.6795V12.4321L136.671 12.4841C138.13 12.5732 138.536 13.0172 138.078 14.02C137.87 14.4748 137.301 15.1123 134.946 17.5305C133.363 19.1557 132.031 20.5007 131.985 20.5194C131.938 20.5387 131.901 16.0828 131.901 10.271C131.901 2.10697 131.877 -0.00917076 131.782 2.98324e-05C131.716 0.00647025 130.545 0.145195 129.179 0.308352Z" fill="white"/>
<path fill-rule="evenodd" clip-rule="evenodd" d="M36.8024 11.3868V12.1417L37.3566 12.2109C37.7175 12.256 37.997 12.3601 38.1582 12.5094C38.4537 12.7833 38.2174 12.2031 42.1176 22.2348L45.2573 30.3108L45.902 30.3417C46.32 30.3618 46.573 30.3299 46.6217 30.251C46.6631 30.1842 47.6562 27.4249 48.829 24.1193C50.0016 20.8136 50.9891 18.1402 51.0233 18.1783C51.0576 18.2166 52.1386 20.9729 53.4257 24.3034L55.7658 30.3589L56.4402 30.3604L57.1145 30.362L59.5998 23.436C60.9667 19.6267 62.3103 15.8659 62.5855 15.0788C62.8608 14.2916 63.199 13.4754 63.337 13.2651C63.6863 12.7329 64.2587 12.3851 65 12.2545L65.6309 12.1434V11.3876V10.6318H62.104H58.5771V11.384V12.1361L59.193 12.2005C60.0304 12.288 60.3519 12.4768 60.6254 13.0417C60.8229 13.4496 60.8455 13.6157 60.7899 14.2457C60.7544 14.6477 60.655 15.2065 60.5691 15.4877C60.3433 16.2267 56.9069 24.7394 56.8344 24.7394C56.8009 24.7394 55.8681 22.3234 54.7617 19.3705C52.5854 13.562 52.5169 13.3092 52.9912 12.8348C53.2495 12.5766 54.0309 12.3109 54.8202 12.213L55.3058 12.1527V11.3923V10.6318H51.37H47.4342V11.3844V12.1371L48.0105 12.2048C48.3275 12.2421 48.7157 12.3486 48.8732 12.4417C49.2021 12.636 49.597 13.3153 49.812 14.0565L49.9602 14.5676L48.1605 19.6974C47.1706 22.5189 46.3335 24.796 46.3001 24.7578C46.2668 24.7195 45.3527 22.3191 44.2688 19.4235C42.6221 15.0244 42.2958 14.0635 42.2848 13.5796C42.2738 13.0958 42.3127 12.9567 42.5212 12.7343C42.7912 12.4464 43.5861 12.1652 44.1303 12.1652H44.4695V11.3985V10.6318H40.6359H36.8024V11.3868Z" fill="white"/>
<path fill-rule="evenodd" clip-rule="evenodd" d="M93.1305 11.3868V12.1417L93.6846 12.2109C94.0456 12.256 94.3251 12.3601 94.4863 12.5094C94.7818 12.7833 94.5455 12.2031 98.4456 22.2348L101.585 30.3108L102.23 30.3417C102.648 30.3618 102.901 30.3299 102.95 30.251C102.991 30.1842 103.984 27.4249 105.157 24.1193C106.33 20.8136 107.317 18.1402 107.351 18.1783C107.386 18.2166 108.467 20.9729 109.754 24.3034L112.094 30.3589L112.768 30.3604L113.443 30.362L115.928 23.436C117.295 19.6267 118.638 15.8659 118.914 15.0788C119.189 14.2916 119.527 13.4754 119.665 13.2651C120.014 12.7329 120.587 12.3851 121.328 12.2545L121.959 12.1434V11.3876V10.6318H118.432H114.905V11.384V12.1361L115.521 12.2005C116.358 12.288 116.68 12.4768 116.953 13.0417C117.151 13.4496 117.174 13.6157 117.118 14.2457C117.082 14.6477 116.983 15.2065 116.897 15.4877C116.671 16.2267 113.235 24.7394 113.163 24.7394C113.129 24.7394 112.196 22.3234 111.09 19.3705C108.913 13.562 108.845 13.3092 109.319 12.8348C109.578 12.5766 110.359 12.3109 111.148 12.213L111.634 12.1527V11.3923V10.6318H107.698H103.762V11.3844V12.1371L104.339 12.2048C104.656 12.2421 105.044 12.3486 105.201 12.4417C105.53 12.636 105.925 13.3153 106.14 14.0565L106.288 14.5676L104.489 19.6974C103.499 22.5189 102.662 24.796 102.628 24.7578C102.595 24.7195 101.681 22.3191 100.597 19.4235C98.9501 15.0244 98.6239 14.0635 98.6129 13.5796C98.6019 13.0958 98.6408 12.9567 98.8492 12.7343C99.1193 12.4464 99.9142 12.1652 100.458 12.1652H100.798V11.3985V10.6318H96.964H93.1305V11.3868Z" fill="white"/>
</svg>
