<svg width="193" height="72" viewBox="0 0 193 72" fill="none" xmlns="http://www.w3.org/2000/svg">
<path d="M32.0936 12.8456C32.2907 12.0671 33.2855 11.2215 34.2333 11.0272C35.4736 10.7729 35.4202 10.7709 36.3426 11.107C38.2085 11.7866 37.8922 10.4986 43.1765 38.9368C43.8168 42.3822 44.4211 45.428 44.5194 45.7051C44.6628 46.1091 45.1206 45.3455 46.8258 41.8586C49.2728 36.8548 49.4256 40.2958 51.1773 40.2958H193L188.813 46.9785L51.1773 47.4191C51.0374 47.6499 49.9398 49.9159 48.7384 52.4546C46.2822 57.6439 46.1171 57.9109 44.9926 58.5088C43.7303 59.1799 42.4595 59.075 41.3778 58.211L40.467 57.483L39.5083 52.4412C38.9812 49.6679 37.902 43.91 37.1102 39.6454C36.3184 35.381 35.6294 31.9277 35.579 31.9717C35.4915 32.0482 34.9548 35.6226 31.4487 59.4819C30.551 65.5895 29.7476 70.2812 29.5392 70.6331C28.5056 72.3755 25.1361 72.2508 24.0562 70.4302C23.855 70.0908 22.314 63.4842 20.632 55.7488C19.2481 49.3846 19.2132 49.0397 18.7551 47.0932L0 47.4191L8.54591 39.6454C8.71456 39.8892 19.0419 39.6454 23.6877 39.6454C24.8758 45.1238 26.0195 50.5038 26.1314 50.8061C26.4034 51.542 26.0837 53.5461 30.4426 23.7704C31.2834 18.0281 32.0263 13.112 32.0936 12.8456Z" fill="#CC0000"/>
<path fill-rule="evenodd" clip-rule="evenodd" d="M12.0696 10.9185C7.16521 11.5685 3.84998 14.833 2.883 19.9646C2.54234 21.7726 2.55978 24.6205 2.92027 26.0579C3.91308 30.0169 6.90443 32.9009 10.7837 33.6391C12.1212 33.8936 14.7263 33.8086 16.116 33.4653C17.7621 33.0585 19.3504 32.2718 20.2443 31.4203C20.8618 30.8323 21.7766 29.5349 22.2118 28.6301L22.6556 27.7075L21.8931 27.4031C21.4738 27.2356 21.0631 27.0948 20.9804 27.09C20.8979 27.0851 20.7521 27.2477 20.6568 27.4513C19.9043 29.057 18.0124 30.612 16.2355 31.085C15.2949 31.3354 13.7028 31.3582 12.7242 31.1354C9.78462 30.4659 7.86835 27.98 7.35877 24.1749C7.28342 23.6127 7.22139 23.0889 7.22072 23.0105C7.21993 22.8981 8.97179 22.8682 15.5397 22.8682H23.8597V22.1363C23.8597 19.7855 22.8737 17.0311 21.2969 14.9771C19.8163 13.0483 17.8646 11.6242 16.033 11.1358C14.9993 10.8602 13.2382 10.7637 12.0696 10.9185ZM15.6728 13.2576C16.1524 13.4001 16.5808 13.6649 17.2061 14.2049C18.6132 15.4203 19.1949 16.7576 19.1985 18.7848C19.2002 19.6974 19.1576 19.9278 18.9461 20.1512L18.6917 20.4201L13.0087 20.4521L7.32562 20.4842L7.42067 19.7689C7.87208 16.3709 9.84759 13.7301 12.4019 13.1102C13.1748 12.9227 14.7911 12.9954 15.6728 13.2576Z" fill="white"/>
<path fill-rule="evenodd" clip-rule="evenodd" d="M86.2896 11.5048C84.3447 11.7995 81.5277 13.0463 80.4739 14.0786C79.5601 14.9739 79.2076 15.7687 79.151 17.0615C79.0981 18.2685 79.2427 18.922 79.6763 19.4349C80.2204 20.0787 81.2127 20.2873 82.3002 19.9867C83.6713 19.6078 84.0929 17.9021 83.233 16.213C82.7434 15.251 82.8605 14.6435 83.6086 14.2653C84.3122 13.9097 85.3342 13.7483 86.9247 13.7417C88.7445 13.7344 89.7528 13.991 90.5406 14.6623C91.3905 15.3863 91.6177 16.0014 91.7263 17.8708C91.8748 20.4282 91.8737 20.4463 91.5726 20.5076C91.4296 20.5366 90.3774 20.7206 89.2342 20.9162C84.1068 21.7941 81.8793 22.6477 80.102 24.4158C78.7435 25.7675 78.1112 27.4603 78.2515 29.3715C78.4496 32.072 79.6693 33.5478 82.2462 34.2045C82.8693 34.3633 83.4024 34.3857 85.4218 34.3381C88.7993 34.2583 90.0065 33.9143 91.423 32.6278L92.0105 32.0943L92.3658 32.6288C93.0606 33.6739 94.1814 34.1383 96.0095 34.1383C97.3378 34.1383 98.1523 33.8473 98.9053 33.1037C99.3253 32.6888 99.4538 32.4781 99.4538 32.2046C99.4538 31.7189 99.2718 31.6503 97.7937 31.5786C96.3667 31.5094 96.0874 31.3821 95.7008 30.6248C95.4807 30.1938 95.4727 30.0073 95.5276 26.6665C95.5594 24.7381 95.5774 21.7638 95.5677 20.0567C95.5439 15.8607 95.3626 15.0179 94.2446 13.9051C92.4922 12.1606 88.9718 11.0984 86.2896 11.5048ZM91.7967 24.9134C91.7115 27.5995 91.4983 28.9819 91.0177 29.9649C90.3019 31.4288 88.8147 32.0889 86.1741 32.1148C85.0668 32.1256 84.9044 32.0987 84.303 31.8048C83.4736 31.3993 82.6753 30.5318 82.4157 29.7541C82.141 28.9306 82.2269 27.387 82.5894 26.6343C83.1715 25.4256 84.2731 24.5798 86.2122 23.8534C87.5211 23.3629 90.5163 22.6804 91.4753 22.6539L91.8689 22.6431L91.7967 24.9134Z" fill="white"/>
<path fill-rule="evenodd" clip-rule="evenodd" d="M178.287 11.5048C176.342 11.7995 173.525 13.0463 172.471 14.0786C171.558 14.9739 171.205 15.7687 171.149 17.0615C171.096 18.2685 171.24 18.922 171.674 19.4349C172.218 20.0787 173.21 20.2873 174.298 19.9867C175.669 19.6078 176.09 17.9021 175.231 16.213C174.741 15.251 174.858 14.6435 175.606 14.2653C176.31 13.9097 177.332 13.7483 178.922 13.7417C180.742 13.7344 181.75 13.991 182.538 14.6623C183.388 15.3863 183.615 16.0014 183.724 17.8708C183.872 20.4282 183.871 20.4463 183.57 20.5076C183.427 20.5366 182.375 20.7206 181.232 20.9162C176.104 21.7941 173.877 22.6477 172.1 24.4158C170.741 25.7675 170.109 27.4603 170.249 29.3715C170.447 32.072 171.667 33.5478 174.244 34.2045C174.867 34.3633 175.4 34.3857 177.419 34.3381C180.797 34.2583 182.004 33.9143 183.421 32.6278L184.008 32.0943L184.363 32.6288C185.058 33.6739 186.179 34.1383 188.007 34.1383C189.335 34.1383 190.15 33.8473 190.903 33.1037C191.323 32.6888 191.451 32.4781 191.451 32.2046C191.451 31.7189 191.269 31.6503 189.791 31.5786C188.364 31.5094 188.085 31.3821 187.698 30.6248C187.478 30.1938 187.47 30.0073 187.525 26.6665C187.557 24.7381 187.575 21.7638 187.565 20.0567C187.541 15.8607 187.36 15.0179 186.242 13.9051C184.49 12.1606 180.969 11.0984 178.287 11.5048ZM183.794 24.9134C183.709 27.5995 183.496 28.9819 183.015 29.9649C182.299 31.4288 180.812 32.0889 178.172 32.1148C177.064 32.1256 176.902 32.0987 176.301 31.8048C175.471 31.3993 174.673 30.5318 174.413 29.7541C174.139 28.9306 174.224 27.387 174.587 26.6343C175.169 25.4256 176.271 24.5798 178.21 23.8534C179.519 23.3629 182.514 22.6804 183.473 22.6539L183.866 22.6431L183.794 24.9134Z" fill="white"/>
<path fill-rule="evenodd" clip-rule="evenodd" d="M144.951 0.637259C143.419 0.820451 142.104 0.99355 142.031 1.02211C141.941 1.05698 141.897 1.33963 141.897 1.88072C141.897 2.3243 141.909 2.69 141.923 2.69344C141.938 2.69688 142.329 2.74208 142.791 2.79404C143.846 2.91242 144.151 3.1314 144.335 3.90283C144.439 4.34034 144.463 7.44554 144.442 17.8864C144.416 31.103 144.412 31.3134 144.2 31.7005C143.911 32.2267 143.187 32.6266 142.523 32.6266H142.004V33.4869V34.3473H146.398H150.792V33.4869V32.6266H150.091C149.122 32.6266 148.6 32.3326 148.296 31.6157C148.09 31.1303 148.065 30.8326 148.031 28.5544L147.995 26.0308L149.313 24.5674L150.632 23.104L153.359 27.3693C154.859 29.7153 156.106 31.772 156.129 31.9401C156.201 32.466 155.929 32.6266 154.965 32.6266H154.115V33.4869V34.3473H158.616H163.118V33.4869V32.6266H162.389C161.766 32.6266 161.587 32.5774 161.162 32.2888C160.888 32.103 160.392 31.5738 160.059 31.113C159.281 30.0368 153.365 20.7561 153.365 20.6127C153.365 20.5531 154.568 19.27 156.039 17.7614C159.034 14.6888 159.374 14.4338 160.626 14.3143L161.403 14.2401V13.3961V12.5523H156.902H152.4V13.3967V14.2412L153.358 14.2996C154.994 14.3995 155.451 14.8978 154.936 16.023C154.703 16.5333 154.065 17.2487 151.422 19.9622C149.646 21.7857 148.151 23.2949 148.099 23.3159C148.046 23.3376 148.006 18.3376 148.006 11.8162C148.006 2.65547 147.978 0.280969 147.872 0.291293C147.798 0.29852 146.484 0.454182 144.951 0.637259Z" fill="white"/>
<path fill-rule="evenodd" clip-rule="evenodd" d="M41.2957 13.0683V13.9155L41.9175 13.9931C42.3226 14.0437 42.6362 14.1605 42.8171 14.3281C43.1486 14.6354 42.8835 13.9843 47.2598 25.2408L50.7829 34.3029L51.5063 34.3376C51.9753 34.36 52.2592 34.3243 52.3138 34.2358C52.3603 34.1608 53.4747 31.0646 54.7907 27.3554C56.1065 23.6461 57.2145 20.6463 57.2529 20.6891C57.2913 20.732 58.5044 23.8248 59.9486 27.562L62.5744 34.3568L63.3312 34.3585L64.0878 34.3603L66.8765 26.5886C68.4103 22.3143 69.918 18.0944 70.2268 17.2111C70.5357 16.3278 70.9151 15.412 71.07 15.176C71.462 14.5788 72.1042 14.1886 72.9361 14.042L73.644 13.9173V13.0692V12.2212H69.6865H65.729V13.0652V13.9092L66.4201 13.9814C67.3597 14.0796 67.7205 14.2915 68.0273 14.9254C68.2489 15.3831 68.2743 15.5694 68.2119 16.2763C68.1721 16.7274 68.0606 17.3545 67.9642 17.6699C67.7108 18.4992 63.8548 28.0512 63.7735 28.0512C63.7359 28.0512 62.6893 25.3403 61.4478 22.0269C59.0057 15.5091 58.9288 15.2255 59.4611 14.6932C59.7508 14.4034 60.6277 14.1053 61.5134 13.9954L62.0582 13.9277V13.0745V12.2212H57.6419H53.2256V13.0657V13.9103L53.8723 13.9862C54.228 14.0281 54.6636 14.1476 54.8403 14.252C55.2094 14.4701 55.6525 15.2323 55.8937 16.064L56.06 16.6375L54.0406 22.3937C52.9298 25.5596 51.9905 28.1148 51.9531 28.0719C51.9157 28.029 50.8899 25.3354 49.6737 22.0863C47.8259 17.1501 47.4599 16.0719 47.4475 15.5289C47.4351 14.9861 47.4788 14.8299 47.7127 14.5804C48.0158 14.2573 48.9076 13.9418 49.5183 13.9418H49.899V13.0815V12.2212H45.5973H41.2957V13.0683Z" fill="white"/>
<path fill-rule="evenodd" clip-rule="evenodd" d="M104.501 13.0683V13.9155L105.123 13.9931C105.528 14.0437 105.842 14.1605 106.022 14.3281C106.354 14.6354 106.089 13.9843 110.465 25.2408L113.988 34.3029L114.712 34.3376C115.181 34.36 115.465 34.3243 115.519 34.2358C115.566 34.1608 116.68 31.0646 117.996 27.3554C119.312 23.6461 120.42 20.6463 120.458 20.6891C120.497 20.732 121.71 23.8248 123.154 27.562L125.78 34.3568L126.537 34.3585L127.293 34.3603L130.082 26.5886C131.616 22.3143 133.123 18.0944 133.432 17.2111C133.741 16.3278 134.12 15.412 134.275 15.176C134.667 14.5788 135.31 14.1886 136.141 14.042L136.849 13.9173V13.0692V12.2212H132.892H128.934V13.0652V13.9092L129.625 13.9814C130.565 14.0796 130.926 14.2915 131.233 14.9254C131.454 15.3831 131.48 15.5694 131.417 16.2763C131.377 16.7274 131.266 17.3545 131.17 17.6699C130.916 18.4992 127.06 28.0512 126.979 28.0512C126.941 28.0512 125.895 25.3403 124.653 22.0269C122.211 15.5091 122.134 15.2255 122.666 14.6932C122.956 14.4034 123.833 14.1053 124.719 13.9954L125.264 13.9277V13.0745V12.2212H120.847H116.431V13.0657V13.9103L117.078 13.9862C117.433 14.0281 117.869 14.1476 118.046 14.252C118.415 14.4701 118.858 15.2323 119.099 16.064L119.265 16.6375L117.246 22.3937C116.135 25.5596 115.196 28.1148 115.158 28.0719C115.121 28.029 114.095 25.3354 112.879 22.0863C111.031 17.1501 110.665 16.0719 110.653 15.5289C110.64 14.9861 110.684 14.8299 110.918 14.5804C111.221 14.2573 112.113 13.9418 112.724 13.9418H113.104V13.0815V12.2212H108.803H104.501V13.0683Z" fill="white"/>
</svg>
